<svg height="32" viewBox="0 0 46 32" width="46" xmlns="http://www.w3.org/2000/svg"><g fill="none" fill-rule="evenodd"><rect fill="#3a3b64" fill-rule="nonzero" height="32" rx="8" width="46"/><path d="m33 14.9731818v5.3211905c0 1.1045695-.8954305 2-2 2h-15c-1.1045695 0-2-.8954305-2-2v-5.3211905zm-7.2380952 3.6198918h-3.6190477c-.4996862 0-.9047619.4050757-.9047619.9047619s.4050757.9047619.9047619.9047619h3.6190477c.4996862 0 .9047619-.4050757.9047619-.9047619s-.4050757-.9047619-.9047619-.9047619zm4.5238095 0h-.9047619c-.4996862 0-.9047619.4050757-.9047619.9047619s.4050757.9047619.9047619.9047619h.9047619c.4996862 0 .9047619-.4050757.9047619-.9047619s-.4050757-.9047619-.9047619-.9047619zm.7142857-10.77489178c1.1045695 0 2 .8954305 2 2v1.53599998h-19v-1.53599998c0-1.1045695.8954305-2 2-2z" fill="#fff"/></g></svg>