<svg height="32" viewBox="0 0 47 32" width="47" xmlns="http://www.w3.org/2000/svg"><g fill="none"><rect fill="#fd6eb6" height="32" rx="8" width="47"/><g transform="translate(15 8)"><path d="m.40601504 15.9183673v-15.50025969h10.21761206v.01753247c1.9064301.10430426 3.5279729.72358998 4.7085022 1.802282.7244392.66192022 1.2828993 1.49159554 1.6599519 2.4659833.3885564 1.00410946.5855549 2.16968461.5855549 3.46433209 0 2.72540813-.7603308 4.77236553-2.2598255 6.08401663-1.1501594 1.0060854-2.727961 1.560835-4.6941835 1.6513637v.0119667l-.4060151.0027828z" fill="#fff"/><path d="m11.0296394.00067904h-.8120301-9.40558193-.81203008v.8348794 14.66538036.8348794h.81203008 9.40558193.8120301v-.0392671c1.8800661-.1473842 3.4083338-.7265956 4.5512932-1.7263915.8049113-.7040539 1.416803-1.6161039 1.8187038-2.7107978.3875278-1.0555659.5840121-2.297449.5840121-3.69111319 0-1.34771799-.2066888-2.56522264-.6143008-3.61864564-.4006557-1.03541744-.9953324-1.91816326-1.7674918-2.62371985-1.1693504-1.06845084-2.7382737-1.71083488-4.5722165-1.87900742zm-.8120301.8348794v.0032282c1.9802166.03345084 3.6530798.62223562 4.8448151 1.71116883.6766376.61825603 1.1989623 1.39486085 1.552412 2.30824675.3694467.95479593.556782 2.06846939.556782 3.31004639 0 2.59733769-.7122045 4.53734699-2.1169083 5.76606689-1.1550046 1.0103153-2.7825835 1.5350649-4.8371008 1.5638403v.002783h-9.40558193v-14.66538036z" fill="#fff"/><g fill="#000"><path d="m2.63049022 13.5658163h2.62153084v-4.47545452h-2.62153084z"/><path d="m5.44994526 6.85279314c0 .84253246-.66443007 1.52599258-1.48393082 1.52599258-.81947369 0-1.48393083-.68346012-1.48393083-1.52599258 0-.8425603.66445714-1.5257143 1.48393083-1.5257143.81950075 0 1.48393082.683154 1.48393082 1.5257143"/><path d="m10.039634 1.80958442c1.8228721 0 3.3420992.50777365 4.3934616 1.46844155 1.1885413 1.08595548 1.7911489 2.73125232 1.7911489 4.89022264 0 4.27870129-2.0230105 6.35866429-6.1846105 6.35866429h-8.28024362v-12.71732848zm.1779699-.97402598h-9.40558194v14.66538036h9.40558194v-.002783c2.0545443-.0287754 3.6820962-.553525 4.8371008-1.5638403 1.4047038-1.2287199 2.1169082-3.1687292 2.1169082-5.76606689 0-1.241577-.1873354-2.35525046-.556782-3.31004639-.3534496-.9133859-.8757743-1.68999072-1.552412-2.30824675-1.1917353-1.08893321-2.8645984-1.67771799-4.844815-1.71116883z"/></g><path d="m9.78087789 13.5708116h-3.32523609v-10.57544518h3.32523609-.1342015c2.77313691 0 5.72494741 1.12522264 5.72494741 5.30162337 0 4.41517631-2.9518105 5.27382181-5.72494741 5.27382181z" fill="#cd0067"/></g><g fill="#fff" transform="translate(21.3 14.3)"><path d="m.62835104.52082857v1.7268h.39881143c.14915368 0 .25681804-.00831428.32299307-.02491429.08661656-.02134285.15847941-.05748571.21564633-.10845714.05710916-.051.10376661-.13485714.13985684-.25165714.03609022-.11677143.05413534-.27591428.05413534-.47748572 0-.20154285-.01804512-.35625714-.05413534-.46414285-.03609023-.10788571-.08661655-.19205714-.15157895-.25251429-.06499128-.06045714-.14739248-.10137142-.24723248-.12274285-.07460572-.01657143-.22075669-.02488572-.43848181-.02488572zm-.53231639-.44285714h.97382977c.21960181 0 .38703158.01662857.50226045.04988571.15478377.04514286.28739369.12537143.3978009.2406.11040723.11522858.19439639.25634286.25199639.42322857.0576.16691429.08644331.37274286.08644331.61748571 0 .21502858-.02702436.40034286-.08101534.55600001-.0660018.19008571-.16021172.34394285-.2826009.46154285-.09241985.08911429-.21723428.15862858-.37444331.20851429-.11762526.03682858-.27483428.05525715-.47162706.05525715h-1.00264421z"/><path d="m1.06986442.1494c.21174858 0 .37392361.01582857.48202105.04702857.14150256.04125715.26458466.11571429.36566617.22117143.10266947.10717143.18209684.2408.23608782.3972.05477052.15868571.08254556.35865714.08254556.59437142 0 .20608572-.02595609.38534286-.07711759.5328-.06195971.17848572-.15100151.32434287-.26461353.4335143-.08401805.081-.20045956.1454857-.34617744.19174285-.10977204.03434286-.26112.05182857-.4495976.05182857h-.93046376v-2.46965714zm-1.04601022-.14285714v2.75537143h1.07482466c.20326014 0 .36927519-.01971429.49339668-.05860001.16745866-.05311428.30298467-.12894286.40302677-.22542857.12995369-.12488571.23109294-.28959999.30050166-.48951428.05635849-.16242857.08494195-.35731428.08494195-.57920001 0-.25142856-.0304024-.46694285-.09031218-.64057142-.0607182-.17594286-.15088602-.32711429-.26793384-.44928571-.11878014-.12397143-.26337202-.21145715-.42979126-.25997143-.12313986-.03554286-.2940343-.0528-.52264422-.0528z"/><path d="m.86835104.59225714c.26319879 0 .37513624.0126.42268872.02317143.08693414.0186.15862376.05391429.21356752.10505714.05580992.05194286.10041744.12697143.13252331.22294286.03349172.10011429.05046857.24874286.05046857.44168571 0 .19351429-.01715008.34714286-.05098827.4566-.03201925.10365715-.07212271.1775143-.11915549.21948572-.04798556.0428-.11014737.07382858-.18475309.09222857-.06031398.01511429-.16301233.02277143-.30555428.02277143h-.3266021v-1.58394286zm-.31219489-.14285714v1.86965714h.47099188c.15666045 0 .26810707-.00888571.34074948-.02708571.09750134-.02402857.18045113-.066.24622195-.12468571.06767639-.0604.12019488-.15322858.1605582-.2838.03854436-.12471429.0572824-.28774287.0572824-.49837144 0-.21117142-.01891128-.37031428-.05777324-.48659999-.03975698-.11877143-.09718375-.21368572-.17066346-.28208572-.07434585-.0692-.16901774-.11645714-.28141713-.14051428-.08009143-.0178-.22869655-.02651429-.45375519-.02651429z"/><path d="m2.91066226 2.69047142v-2.61251428h1.95430015v.44285715h-1.42198377v.57857142h1.32272121v.44285715h-1.32272121v.70537142h1.47251008v.44285714z"/><path d="m4.79276752.1494v.3h-1.42195488v.72142857h1.32269233v.30000001h-1.32269233v.84822856h1.4724812v.3h-1.86046556v-2.46965714zm-1.95430016-.14285714v2.75537143h2.14918738v-.58571429h-1.4724812v-.56251428h1.32269233v-.58571429h-1.32269233v-.43571429h1.42195488v-.58571428z"/><path d="m6.91523946 1.65475715-.36390497-.96785715-.35660029.96785715zm.98133654 1.03571427h-.57992662l-.23034225-.59285714h-1.05470075l-.21850466.59285714h-.56554828l1.02588632-2.61251428h.56739609z"/><path d="m6.79196969.1494c.0337227.08342857.92595969 2.2914.99799578 2.46965714h-.42372811c-.03028692-.078-.23037113-.59285714-.23037113-.59285714h-1.15477174s-.18917052.51322858-.21847578.59285714h-.40958076c.06955308-.17711428.93658467-2.38502857.96981654-2.46965714zm-.56791579-.14285714-1.08198497 2.75537143h.72154466s.18914166-.51325715.21847579-.59285715h.95465865c.03025805.07797143.23034225.59285715.23034225.59285715h.73609625l-1.11348451-2.75537143z"/><path d="m6.58797631.89355429c.08529183.2104.22950973.56611429.27962646.68977143h-.55361868c.04893385-.12314286.19028793-.47897143.27399222-.68977143zm-.49637354.83262856h1l-.5050895-1.24594285z"/><path d="m8.3419034 2.69047142v-2.59108571h.53231639v2.14822857h1.32633021v.44285714z"/><path d="m8.80205377.17082857v2.14822857h1.32633023v.3h-1.71431459v-2.44822857zm-.53231639-.14285714v2.73394286h2.00300752v-.58571429h-1.32633023v-2.14822857z"/></g></g></svg>