<svg height="32" viewBox="0 0 47 32" width="47" xmlns="http://www.w3.org/2000/svg"><g fill="none"><rect fill="#ff9500" height="32" rx="8" width="47"/><path d="m26.9826544 9c-1.2641487 0-2.4921855 0-3.5927009.55888963-1.099714.55901107-2.0711299 1.67785827-2.8187109 3.91550447-.1620285.4811026-.2477302.8956057-.2589592 1.255429-.011226.3606259.0513601.6673992.1877166.9340531.1684502.3252858.4411777.6313139.7820817.8891335.3417053.258622.7498828.4683289 1.1902508.6024598.016844.0048169.2479559.0706337.5287007.1509516.279139.0803178.6055491.1766015.8124966.2392488.1211206.0369461.2541613.0851891.3744805.1582786.1211207.0714826.2294794.1678058.2976589.3011332.0449199.0883487.0690242.1855711.0714305.2891798.0032037.1044132-.0145413.2169658-.0554501.3358356-.1026708.3035999-.2582917.4995589-.5550782.6192322-.2951825.1196723-.7306907.1580851-1.3916415.1629049h-8.2506984l-1.3042315 3.5877658h8.8313832c.8310015 0 2.3502048 0 3.810073-.6215449 1.4598672-.6208548 2.8605355-1.8617769 3.4533059-4.345998.2229911-.93329.1539491-1.6939031-.2110177-2.2914661-.3665717-.5967596-1.0291273-1.0303871-1.9940844-1.3074822 0 0-.2157041-.062826-.4699779-.1359145-.2526698-.0730886-.5454707-.1565483-.6946654-.1999201-.2470548-.0706791-.4371978-.213663-.5494947-.3959847-.1114955-.1815171-.1451953-.4024065-.0818275-.6280999.0665755-.2345268.2270297-.4216742.4580411-.5509852.2326161-.1285096.537411-.1991492.8935541-.1991492h5.1335575c.0360953-.0522061.0690292-.109157.1051244-.1613632.9376836-1.3284524 2.0727348-2.40309081 3.3160284-3.162092z" fill="#fff"/></g></svg>