<svg height="32" viewBox="0 0 32 32" width="32" xmlns="http://www.w3.org/2000/svg" xmlns:xlink="http://www.w3.org/1999/xlink"><defs><rect id="a" height="32" rx="8" width="32"/><mask id="b" fill="#fff"><use fill="#fff" fill-rule="evenodd" xlink:href="#a"/></mask></defs><g fill="none" fill-rule="evenodd"><use fill="#fff" fill-rule="nonzero" xlink:href="#a"/><g fill="#00c800" mask="url(#b)"><path d="m12.7406849 35.4597835c-.1545772.0855082-.3104827.1689365-.4644561.255138-.450689.2484359-.9021027.4969874-1.3527917.7454234-.1985351.1104673-.3971909.221628-.5950013.3326731-.258313.1393552-.51469368.2826392-.77300661.423381-.46856203.2524803-.92553077.525991-1.40363311.763334-.33801678.0748774-.72482198-.0598558-.87819151-.3688408-.14419151-.2517869-.05832873-.5430925.02004672-.7995015.12499013-.4338963.24599507-.8690637.36820764-1.3035377.12028036-.436554.24394209-.8725302.36555084-1.3082753.06726522-.2366497.13610036-.4727216.19370451-.7107579.06328003-.2168904.13404738-.4319319.17112175-.654831.03912734-.2970831-.03707437-.5962463-.17728068-.8612061-.11544982-.1813005-.26857783-.3391439-.44585851-.4667129-.32086838-.2268278-.63968378-.4561978-.94956269-.6967762-.24043995-.188118-.47617012-.3807425-.7082774-.5785669-.21520039-.1834959-.42883086-.3688407-.6363024-.5601942-.27413294-.2569868-.54283153-.5187111-.80247286-.7895641-.20276176-.2135394-.40540276-.4273098-.59910727-.6488223-.18356038-.2097261-.36216947-.4233811-.53594801-.6409647-.28306943-.3510458-.54766206-.7152645-.80525042-1.084683-.05156597-.0749929-.10095821-.151257-.15119578-.2268278-.27751432-.4201456-.53449885-.8526553-.77288582-1.294409-.16496282-.3136071-.32364594-.6304496-.47411715-.9507587-.0508414-.1228313-.10446035-.2445072-.15602632-.366183-.19020237-.4424471-.35383679-.8954094-.49947747-1.3528782-.13114906-.42211-.24527048-.8488421-.34284731-1.2786941-.09347088-.4404827-.17039718-.8843164-.22534453-1.329999-.16629121-1.3148617-.14286311-2.6493672.05905331-3.9589135.06871438-.4280032.14986739-.8546197.25420698-1.2760364.10796248-.4397894.23440177-.8750723.38475222-1.3030755.15047121-.4483402.33535999-.8842009.52157716-1.3194838l.01642383-.0387098c.2089207-.4358606.42255117-.8691791.66444028-1.2892092.52906449-.9262617 1.14809773-1.80526276 1.84478184-2.62371479.08042843-.09475231.16278907-.18800246.24321751-.28206147.30927509-.35104578.63412866-.6876476.96948865-1.01569861.12221257-.11959592.24732346-.23664969.37303817-.35370347.34695327-.32666439.70972655-.63772931 1.08071175-.93816349.1085663-.08677925.21785719-.1728652.32847647-.25698677.85609181-.66072408 1.76435341-1.2590503 2.71319152-1.7915121.37243436-.20776179.7503031-.4068572 1.1322777-.59821066.0867082-.0427541.1753485-.08481488.2632643-.12629791.448636-.21169054.9028272-.41286589 1.3630566-.59890397.8925623-.36213874 1.8071036-.67505248 2.7373442-.93354143.4918693-.13600424.9872408-.26230214 1.4875636-.36676079.4121656-.0933657.8278332-.17159414 1.2455538-.24265838.5035835-.09070801 1.0121182-.15645687 1.5205321-.21492598.8300069-.09660115 1.6647236-.14987044 2.5001649-.17818058h1.3186157c.9755268.02692352 1.9492422.09798776 2.9165571.22093467.4582971.05789135.9145413.12814673 1.3686117.20764624.4575725.08157943.9124883.17552289 1.3652303.27940378.460954.1079252.9207003.22359236 1.3748914.35705446.9418339.26888859 1.8638625.59763291 2.7660859.97225121.4575726.19066015.9048803.4023507 1.3535163.61277017l.0364706.01640833c.4499644.23144987.9000497.46289973 1.3362471.71792213.9681603.55360774 1.8874113 1.18336399 2.7552172 1.87170491.0184768.01444395.0542228.04263854.0720957.05719805.4328161.3562456.861647.71780657 1.2635476 1.10640662.0681106.06574887.1367042.1327688.206747.19851766.327148.31487813.6314718.65020889.935071.98553965-.1792129.07360637-.3579427.14917712-.5351026.2268278-.2040902.08608595-.4081804.17147858-.6108214.25895115-.4487568.18996684-.8959437.38328468-1.3447005.57325152-.3985193.17032306-.7969178.3385662-1.193384.51212471-.0577249.02241702-.1147253.04541179-.1711218.06909987-.4595048.19389559-.9170773.39241325-1.3768236.5864244-.9179227.39241327-1.8372945.78159107-2.7544926 1.17469767-.9110392.385249-1.8214745.7724624-2.7303399 1.1623336-.4575726.1965532-.9158697.3891778-1.3734423.5851533-.2851224.1202892-.569641.2439294-.8527104.3674541-.1778845.0690999-.3517838.1459417-.5277361.219548-.4636108.199211-.9287914.3964576-1.3940928.5937042-.375695.1610789-.7515107.3214646-1.1267226.4832368-.0775301.0321234-.1545772.0643623-.2308997.0966012-.4595048.1932022-.9164735.3911421-1.3753744.585731-.9186473.3911422-1.8372946.7810134-2.7544927 1.1742355-.7022392.2951188-1.4015801.5975173-2.1017663.8966804-.2081961.090708-.4225512.1696298-.6458427.2142327-.4562442.0737219-.9331389.0184883-1.3535163-.1669721-.1016828-.0485316-.2007088-.1024942-.2968365-.1610789-.3523876-.2438139-.7083982-.4843923-1.0635633-.7250863-.2893492-.1971311-.5771284-.3964576-.8685305-.5903532-.1717256-.1183248-.3441757-.237343-.518075-.3537035-.443081-.3050562-.8883357-.6087258-1.3341942-.9111244-.0082119-.0053153-.0247565-.0158305-.0329684-.0210304-.3208683-.2216279-.6424613-.4424471-.9659865-.660724-.1251109-.0848149-.2701477-.1354265-.4157884-.1735586-.4857104-.0256524-.907537.4193368-.7983669.8802722.3889789.8703347.819742 1.7224122 1.2209181 2.5868538.2150796.4497268.4281063.8994537.6437897 1.3483717.0839306.1769095.1670158.3543968.250101.531884.1223334.2545602.2459951.5088893.3655509.764605.2074715.4326252.4108371.8665215.6197578 1.2991467.1325982.2773239.2651964.5560343.3991231.8335893.0763224.1630433.1525241.3266644.230175.4897077.2446667.4561977.3944133.9645092.7228898 1.3752952.131149.1177471.2747367.2235924.4320915.3096783.4582971.2163126 1.018277.1899669 1.4559236-.0618201.1586831-.0887436.3160379-.1794516.4741172-.268773.2899529-.1558792.5764037-.3163803.8650283-.4741083.9151451-.5076182 1.8317394-1.0137342 2.7482129-1.5205436.3951379-.2156193.7887058-.4345895 1.1817907-.6555242.0646084-.0367454.1312698-.0723353.1972066-.1078097.4575726-.2491292.9123676-.5028806 1.3686118-.7546675.2597621-.1427062.520128-.2847192.7777163-.4300831.2007088-.1109295.4020214-.2220902.603334-.3325575.4555196-.251787.90959-.5055383 1.3671626-.7540898.1396025-.0755707.2776351-.1532214.4157884-.2313343.3214722-.1788739.6445143-.3550901.9652619-.5358128.9158697-.5049605 1.834517-1.0071478 2.7476091-1.5166148.3484025-.1940112.6980125-.383978 1.0456904-.5778736.1037357-.0573136.2075923-.1150894.3119319-.1722874.4568479-.2531736.9158697-.5035739 1.3713892-.7592897.2398362-.1295333.4768947-.2629954.7145571-.3957642.2171326-.1190182.4349898-.2360719.6513979-.3563612.9246854-.5115469 1.8488878-1.0242494 2.7751431-1.5344097.4320915-.2412718.8676851-.4779215 1.2997766-.7211576.033693-.0183727.0688351-.0374387.1038565-.0552337.4521382-.2478582.9013781-.4996451 1.3535163-.7475033.3208684-.1762162.639563-.3569389.9612768-.5338484.1298206-.070371.2589167-.142013.3887374-.2129616.4349898-.2307566.8527104-.49051661 1.3007427-.69885615.1559055.30898499.3572181.59428195.5248377.89737375.2473235.4385184.4795515.8848942.6842455 1.3430563.0584495.1302267.1141214.2617244.1697934.3932222.1284922.3043629.2474442.6113835.3551651.9230262.1450369.4180657.2686986.8427178.3765404 1.2714143.1079624.4345896.1923761.874379.261815 1.3161328.0638839.4345896.1112231.8717213.1374288 1.310933.0253874.4397894.03164.8815432.0192014 1.3220259-.0165446.4385183-.0480639.8763434-.101079 1.3115107-.0542228.436554-.1290961.8704503-.220514 1.3009955-.0961277.4352829-.2101283.8665215-.3413981 1.2938314-.2886246.9157465-.6657687 1.8066493-1.1199599 2.6593046-.4912656.9242973-1.0772096 1.801334-1.7362155 2.6251014-.1167783.1445551-.236334.2885324-.3566144.4305453-.250101.2906123-.506361.5759092-.7728858.8526553-.1883909.1926245-.3785933.3832847-.5730224.5707094-.285847.2688886-.5778529.5324618-.8781915.7862131-.1559056.1334621-.3153133.2629955-.4753248.3911422-.3930849.3149937-.7983669.6153123-1.2154837.9013025-.0618309.0420608-.1229371.0842371-.1848888.1262979-.4499644.3037852-.9103146.5935886-1.3837071.8644416-.1834396.105152-.369053.2070685-.5557532.3077139-.2645927.1427063-.5318421.2827548-.8025937.414137-.452742.2209346-.9117637.4292742-1.3775482.622592-.2178572.0914014-.436922.1774873-.6562283.2635732-.2473235.0934813-.4966999.1828027-.7466802.2709686-.4412695.1563413-.889181.2963898-1.3391454.4285809-.4713396.1334621-.9460606.2571023-1.4242837.366183-.4055235.0960234-.8156361.1728652-1.2236956.256409-.0233074.0032355-.069439.0099375-.0921425.0131729-.456848.0782284-.9144205.1491771-1.3741668.2070685-.4561234.057198-.9129714.1037653-1.3712685.1386619-.4590218.0316611-.9186473.059278-1.3782728.0709487-.4582972.0125951-.9158697.0151373-1.3741669.0053154-.4582971-.0105152-.9165942-.0308523-1.3741668-.0623979-.4582971-.0315456-.9151451-.074993-1.3713893-.1295334-.4115617-.0486472-.8210704-.1111606-1.2298545-.1742518-.1476937-.0243814-.2946628-.052576-.4424772-.0741841-.3545613-.0690999-.709002-.1381997-1.0615103-.2176992-.4657845-.1031876-.9275838-.2247479-1.3885377-.3457304-.4521382-.1150894-.9371241-.0782285-1.3707855.0846993" transform="translate(-7 -2)"/></g></g></svg>